<?xml version="1.0" encoding="UTF-8"?>
<svg xmlns="http://www.w3.org/2000/svg" xmlns:xlink="http://www.w3.org/1999/xlink" width="48pt" height="48pt" viewBox="0 0 48 48" version="1.1">
<g id="surface1">
<path style=" stroke:none;fill-rule:nonzero;fill:#039BE5;fill-opacity:1;" d="M 43 24 C 43 34.492188 34.492188 43 24 43 C 13.507813 43 5 34.492188 5 24 C 5 13.507813 13.507813 5 24 5 C 34.492188 5 43 13.507813 43 24 Z "/>
<path style=" stroke:none;fill-rule:nonzero;fill:#FFFFFF;fill-opacity:1;" d="M 26.570313 29.035156 L 31.488281 29.035156 L 32.261719 24.039063 L 26.570313 24.039063 L 26.570313 21.3125 C 26.570313 19.234375 27.25 17.394531 29.191406 17.394531 L 32.308594 17.394531 L 32.308594 13.035156 C 31.761719 12.964844 30.601563 12.800781 28.410156 12.800781 C 23.839844 12.800781 21.15625 15.214844 21.15625 20.71875 L 21.15625 24.039063 L 16.457031 24.039063 L 16.457031 29.035156 L 21.15625 29.035156 L 21.15625 42.765625 C 22.089844 42.90625 23.03125 43 24 43 C 24.875 43 25.730469 42.921875 26.570313 42.804688 Z "/>
</g>
</svg>
