<?xml version="1.0" encoding="UTF-8"?>
<svg xmlns="http://www.w3.org/2000/svg" xmlns:xlink="http://www.w3.org/1999/xlink" width="26pt" height="26pt" viewBox="0 0 26 26" version="1.1">
<g id="surface1">
<path style=" stroke:none;fill-rule:nonzero;fill:#0087F0;fill-opacity:1;" d="M 7.433594 0 C 3.339844 0 0 3.339844 0 7.433594 L 0 18.171875 C 0 22.265625 3.339844 25.605469 7.433594 25.605469 L 18.171875 25.605469 C 22.265625 25.605469 25.605469 22.265625 25.605469 18.171875 L 25.605469 7.433594 C 25.605469 3.339844 22.265625 0 18.171875 0 Z M 7.433594 1.96875 L 18.171875 1.96875 C 21.203125 1.96875 23.636719 4.402344 23.636719 7.433594 L 23.636719 18.171875 C 23.636719 21.203125 21.203125 23.636719 18.171875 23.636719 L 7.433594 23.636719 C 4.40625 23.636719 1.96875 21.203125 1.96875 18.171875 L 1.96875 7.433594 C 1.96875 4.40625 4.402344 1.96875 7.433594 1.96875 Z M 20.1875 3.9375 C 19.375 3.9375 18.710938 4.601563 18.710938 5.417969 C 18.710938 6.230469 19.375 6.894531 20.1875 6.894531 C 21.003906 6.894531 21.667969 6.230469 21.667969 5.417969 C 21.667969 4.601563 21.003906 3.9375 20.1875 3.9375 Z M 12.804688 5.910156 C 9.007813 5.910156 5.910156 9.007813 5.910156 12.804688 C 5.910156 16.601563 9.007813 19.695313 12.804688 19.695313 C 16.601563 19.695313 19.695313 16.601563 19.695313 12.804688 C 19.695313 9.007813 16.601563 5.910156 12.804688 5.910156 Z M 12.804688 7.878906 C 15.535156 7.878906 17.726563 10.070313 17.726563 12.804688 C 17.726563 15.535156 15.535156 17.726563 12.804688 17.726563 C 10.070313 17.726563 7.878906 15.535156 7.878906 12.804688 C 7.878906 10.070313 10.070313 7.878906 12.804688 7.878906 Z "/>
</g>
</svg>
